<svg xmlns="http://www.w3.org/2000/svg" width="1134px" height="1036px" viewBox="0 0 1134 1036" version="1.1" transform="rotate(0) scale(1, 1)"><path d="M 484.893 192.374 C 468.918 198.014, 457.111 211.597, 454.021 227.891 C 452.512 235.844, 452.664 312.168, 454.195 315.528 C 455.419 318.214, 459.647 321, 462.500 321 C 464.964 321, 469.658 318.278, 470.629 316.287 C 471.108 315.304, 471.725 295.150, 472 271.500 L 472.500 228.500 475.449 223.176 C 478.610 217.470, 483.489 213.027, 489.662 210.236 C 493.268 208.605, 506.675 208.500, 711 208.500 C 888.280 208.500, 929.187 208.743, 932.215 209.816 C 937.071 211.536, 945.519 219.189, 948.300 224.387 L 950.500 228.500 950.762 384.455 C 951.058 560.112, 951.666 546.166, 943.317 555.092 C 935.344 563.616, 932.515 564.299, 902.500 564.949 C 873.383 565.579, 873.238 565.612, 865.240 573.326 C 857.701 580.599, 857 584.020, 857 613.538 C 857 627.542, 856.671 639, 856.269 639 C 855.866 639, 839.779 623.273, 820.519 604.052 C 794.547 578.132, 784.337 568.579, 781 567.074 C 776.831 565.193, 774.463 565.042, 748.839 565.022 L 721.178 565 718.490 568.195 C 716.305 570.791, 715.907 572.055, 716.367 574.945 C 716.695 577.008, 718.019 579.444, 719.522 580.750 C 722.052 582.948, 722.661 583, 745.991 583 C 760.217 583, 771.008 583.425, 772.685 584.050 C 774.233 584.628, 795.087 604.653, 819.026 628.550 C 860.557 670.007, 862.721 672, 866.221 672 C 868.655 672, 870.832 671.189, 872.694 669.588 L 875.500 667.176 876 627.614 C 876.499 588.104, 876.503 588.050, 878.775 585.776 C 881.002 583.549, 881.626 583.489, 907.775 583 L 934.500 582.500 942.308 578.772 C 955.983 572.242, 965.536 560.404, 968.529 546.280 C 970.650 536.269, 970.679 236.868, 968.560 226.869 C 965.044 210.283, 953.601 197.592, 937.168 192.057 C 931.080 190.006, 930.463 190, 711.282 190.021 L 491.500 190.042 484.893 192.374 M 504.762 303.073 C 501.227 305.133, 500.506 308.300, 500 324 L 499.500 339.500 493.049 340.295 C 479.091 342.015, 464.912 352.297, 458.493 365.355 C 456.561 369.285, 454.418 375.650, 453.730 379.500 L 452.479 386.500 436.148 387 C 420.484 387.480, 419.740 387.596, 417.909 389.861 C 415.056 393.389, 415.389 399.117, 418.636 402.364 C 421.263 404.991, 421.330 405, 437.136 405 L 453 405 453 428.500 L 453 452 437.577 452 C 422.443 452, 422.096 452.049, 419.077 454.589 C 414.797 458.190, 414.732 463.886, 418.923 468.077 L 421.846 471 437.442 471 L 453.037 471 452.768 494.250 L 452.500 517.500 436.159 518 C 420.483 518.480, 419.740 518.596, 417.909 520.861 C 415.804 523.464, 415.398 529.006, 417.080 532.150 C 419.092 535.909, 423.981 537, 438.808 537 L 452.680 537 453.913 543.901 C 457.073 561.581, 469.490 575.939, 486.091 581.105 C 489.439 582.147, 493.938 583, 496.089 583 L 500 583 500 598.050 C 500 614.517, 500.794 617.674, 505.472 619.805 C 508.983 621.405, 510.662 621.313, 514.010 619.335 C 518.396 616.744, 519 614.154, 519 597.953 L 519 583 542.500 583 L 566 583 566 598.566 C 566 607.329, 566.450 614.972, 567.030 616.055 C 568.569 618.932, 573.681 621.229, 576.947 620.512 C 578.488 620.173, 580.818 618.760, 582.124 617.370 C 584.388 614.964, 584.515 614.091, 584.819 598.904 L 585.138 582.963 608.319 583.232 L 631.500 583.500 632 599.726 C 632.467 614.884, 632.648 616.100, 634.755 618.203 C 636.340 619.785, 638.196 620.455, 641 620.455 C 643.804 620.455, 645.660 619.785, 647.245 618.203 C 649.352 616.100, 649.533 614.884, 650 599.726 L 650.500 583.500 655.598 582.878 C 666.499 581.547, 675.655 577.007, 683.653 568.967 C 691.529 561.050, 696.954 549.402, 696.988 540.338 L 697 537.176 713.084 536.838 L 729.167 536.500 732.084 533.234 C 735.697 529.188, 735.869 525.123, 732.590 521.306 L 730.179 518.500 713.840 518 L 697.500 517.500 697.232 494.250 L 696.963 471 712.031 471 C 723.252 471, 727.817 470.629, 729.909 469.547 C 735.301 466.759, 736.358 458.447, 731.841 454.354 C 730.059 452.738, 727.686 452.459, 713.380 452.182 L 696.963 451.865 697.232 428.682 L 697.500 405.500 713.840 405 L 730.179 404.500 732.590 401.694 C 735.718 398.052, 735.663 393.941, 732.432 390.101 L 729.863 387.049 713.685 386.774 L 697.507 386.500 696.817 380.973 C 695.774 372.611, 693.252 366.165, 688.295 359.187 C 680.992 348.909, 668.739 341.512, 656.844 340.200 L 650.500 339.500 650.226 323.318 L 649.951 307.137 646.899 304.568 C 643.001 301.288, 638.999 301.288, 635.101 304.568 L 632.049 307.137 631.774 323.318 L 631.500 339.500 608.250 339.768 L 585 340.037 585 325.486 C 585 315.030, 584.592 309.958, 583.548 307.462 C 581.161 301.747, 574.153 300.246, 569.306 304.410 L 566.500 306.821 566 323.160 L 565.500 339.500 542.250 339.768 L 519 340.037 519 324.969 C 519 309.049, 518.135 305.213, 514.055 303.030 C 511.628 301.730, 507.030 301.752, 504.762 303.073 M 215.734 341.088 C 201.323 344.483, 187.518 357.880, 182.973 372.880 C 180.996 379.404, 180.971 381.816, 181.233 538.500 L 181.500 697.500 183.818 703.240 C 188.586 715.047, 199.017 725.472, 210.736 730.143 C 216.082 732.274, 218.400 732.479, 242.730 732.970 L 268.960 733.500 271.730 736.272 L 274.500 739.044 274.783 777.919 L 275.067 816.794 277.670 819.397 C 280.477 822.204, 284.591 822.782, 288.316 820.891 C 289.517 820.282, 310.087 800.257, 334.026 776.391 L 377.553 733 516.566 733 C 667.166 733, 660.746 733.219, 671.946 727.700 C 678.191 724.623, 688.075 715.116, 691.420 708.969 C 696.781 699.120, 696.975 697.082, 696.988 650.673 L 697 607.846 693.954 604.800 C 691.331 602.177, 690.400 601.836, 687.263 602.345 C 685.259 602.670, 682.693 603.862, 681.560 604.994 C 679.561 606.992, 679.485 608.315, 679 649.776 C 678.524 690.455, 678.400 692.715, 676.408 697 C 673.543 703.164, 669.653 707.531, 664.145 710.770 L 659.500 713.500 517 714 L 374.500 714.500 369.500 716.796 C 365.563 718.604, 357.055 726.523, 329.481 754.046 C 310.221 773.271, 294.134 789, 293.731 789 C 293.329 789, 293 777.380, 293 763.178 C 293 734.256, 292.497 731.278, 286.420 724.178 C 284.511 721.947, 280.373 718.857, 277.224 717.311 L 271.500 714.500 245 714 L 218.500 713.500 213.855 710.770 C 208.463 707.600, 204.443 703.150, 201.867 697.500 C 200.128 693.683, 200.044 686.303, 200.044 536.500 C 200.044 385.985, 200.120 379.332, 201.890 375.435 C 204.563 369.551, 209.582 364.261, 215.410 361.186 L 220.500 358.500 323 358.258 C 379.375 358.125, 426.500 357.782, 427.722 357.496 C 433.939 356.041, 436.119 347.578, 431.548 342.646 L 429.095 340 324.298 340.100 C 266.659 340.156, 217.806 340.600, 215.734 341.088 M 494.297 359.035 C 486.238 360.655, 479.645 365.601, 475.449 373.176 L 472.500 378.500 472.500 461.500 L 472.500 544.500 474.702 548.616 C 478.252 555.251, 481.717 558.714, 487.796 561.699 L 493.500 564.500 575.500 564.500 L 657.500 564.500 661.795 562.207 C 668.397 558.681, 673.523 553.509, 676.130 547.742 L 678.500 542.500 678.500 462 C 678.500 385.222, 678.412 381.272, 676.594 376.559 C 674.068 370.009, 668.160 363.772, 661.727 360.863 L 656.500 358.500 577.500 358.345 C 534.050 358.260, 496.608 358.570, 494.297 359.035 M 524.500 406.146 C 518.841 409.301, 519.046 407.246, 519.022 460.800 C 518.998 514.639, 518.985 514.508, 524.727 516.887 C 526.782 517.738, 540.926 517.980, 576.752 517.778 L 625.956 517.500 628.728 514.727 L 631.500 511.955 631.500 461.500 L 631.500 411.045 628.728 408.273 L 625.956 405.500 576.228 405.265 C 541.116 405.100, 525.912 405.358, 524.500 406.146" stroke="none" fill="#ffff" fill-rule="evenodd"/></svg>